<?xml version="1.0" encoding="utf-8"?>
<!-- Generator: Adobe Illustrator 28.1.0, SVG Export Plug-In . SVG Version: 6.00 Build 0)  -->
<svg version="1.1" id="Layer_1" xmlns="http://www.w3.org/2000/svg" xmlns:xlink="http://www.w3.org/1999/xlink" x="0px" y="0px"
	 viewBox="0 0 24 24" style="enable-background:new 0 0 24 24;" xml:space="preserve">
<style type="text/css">
	.st0{fill:#FFFFFF;}
</style>
<path class="st0" d="M4,18h8.1L11,19.1V20H4c-1.1,0-2-0.9-2-2V6c0-1.1,0.9-2,2-2h6l2,2h8c1.1,0,2,0.9,2,2v2.1
	C21.7,10,21.5,10,21.2,10c-0.4,0-0.8,0.1-1.2,0.3V8H4V18"/>
<polyline class="st0" points="17,14.8 19,14.8 19,17.8 22,17.8 22,19.8 19,19.8 19,22.8 17,22.8 17,19.8 14,19.8 14,17.8 17,17.8 
	17,14.8 "/>
</svg>
